<svg xmlns="http://www.w3.org/2000/svg" xmlns:xlink="http://www.w3.org/1999/xlink" width="500" zoomAndPan="magnify" viewBox="0 0 375 374.999991" height="500" preserveAspectRatio="xMidYMid meet" version="1.0"><defs><g/></defs><g fill="#32c6ff" fill-opacity="0.1608"><g transform="translate(54.097068, 148.867607)"><g><path d="M -30.984375 -27.921875 C -30.335938 -29.835938 -29.421875 -31.617188 -28.234375 -33.265625 C -27.054688 -34.921875 -26.046875 -36.109375 -25.203125 -36.828125 L -23.890625 -37.828125 L -18.515625 -32.375 C -18.773438 -32.175781 -19.117188 -31.890625 -19.546875 -31.515625 C -19.984375 -31.148438 -20.640625 -30.410156 -21.515625 -29.296875 C -22.398438 -28.191406 -23.03125 -27.09375 -23.40625 -26 C -23.851562 -24.644531 -23.914062 -23.503906 -23.59375 -22.578125 C -23.269531 -21.648438 -22.617188 -21.019531 -21.640625 -20.6875 C -21.148438 -20.519531 -20.640625 -20.535156 -20.109375 -20.734375 C -19.578125 -20.941406 -18.929688 -21.378906 -18.171875 -22.046875 C -17.421875 -22.722656 -16.796875 -23.332031 -16.296875 -23.875 C -15.796875 -24.414062 -15.035156 -25.25 -14.015625 -26.375 C -12.253906 -28.351562 -10.257812 -29.867188 -8.03125 -30.921875 C -5.800781 -31.984375 -3.625 -32.15625 -1.5 -31.4375 C 0.539062 -30.75 2.203125 -29.785156 3.484375 -28.546875 C 4.765625 -27.304688 5.617188 -25.894531 6.046875 -24.3125 C 6.484375 -22.738281 6.648438 -21.101562 6.546875 -19.40625 C 6.453125 -17.71875 6.097656 -15.96875 5.484375 -14.15625 C 4.960938 -12.601562 4.289062 -11.128906 3.46875 -9.734375 C 2.65625 -8.335938 1.835938 -7.21875 1.015625 -6.375 C 0.203125 -5.53125 -0.566406 -4.785156 -1.296875 -4.140625 C -2.023438 -3.492188 -2.613281 -3.035156 -3.0625 -2.765625 L -3.734375 -2.359375 L -9.1875 -8.703125 C -8.769531 -8.953125 -8.238281 -9.300781 -7.59375 -9.75 C -6.945312 -10.207031 -5.988281 -11.082031 -4.71875 -12.375 C -3.457031 -13.664062 -2.628906 -14.898438 -2.234375 -16.078125 C -1.078125 -19.503906 -1.664062 -21.609375 -4 -22.390625 C -4.488281 -22.554688 -4.984375 -22.585938 -5.484375 -22.484375 C -5.984375 -22.378906 -6.546875 -22.085938 -7.171875 -21.609375 C -7.796875 -21.140625 -8.304688 -20.707031 -8.703125 -20.3125 C -9.109375 -19.925781 -9.742188 -19.273438 -10.609375 -18.359375 C -11.484375 -17.441406 -12.140625 -16.769531 -12.578125 -16.34375 C -14.367188 -14.539062 -16.257812 -13.316406 -18.25 -12.671875 C -20.238281 -12.035156 -22.160156 -12.023438 -24.015625 -12.640625 C -27.210938 -13.722656 -29.425781 -15.785156 -30.65625 -18.828125 C -31.882812 -21.867188 -31.992188 -24.898438 -30.984375 -27.921875 Z M -30.984375 -27.921875 "/></g></g></g><g fill="#32c6ff" fill-opacity="0.1608"><g transform="translate(72.96676, 103.710052)"><g><path d="M -14.625 -42.265625 L -8.703125 -37.625 L -16.6875 -27.4375 L -10.8125 -22.828125 L -3.171875 -32.578125 L 2.75 -27.9375 L -4.890625 -18.1875 L 1.046875 -13.53125 L 9.03125 -23.71875 L 14.953125 -19.078125 L 1.6875 -2.15625 L -27.890625 -25.34375 Z M -14.625 -42.265625 "/></g></g></g><g fill="#32c6ff" fill-opacity="0.1608"><g transform="translate(102.647072, 70.159753)"><g><path d="M -17.609375 -33.3125 L -6.203125 -40.4375 C -3.140625 -42.351562 -0.132812 -43.097656 2.8125 -42.671875 C 5.757812 -42.242188 8.179688 -40.515625 10.078125 -37.484375 C 11.546875 -35.128906 12.191406 -32.796875 12.015625 -30.484375 C 11.835938 -28.171875 10.941406 -26.0625 9.328125 -24.15625 L 28.53125 -17.84375 L 19.296875 -12.078125 L 1.703125 -18.5625 L 9.578125 -5.984375 L 2.3125 -1.453125 Z M -1.5 -23.703125 L -0.65625 -24.234375 C 0.0195312 -24.660156 0.578125 -25.03125 1.015625 -25.34375 C 1.460938 -25.65625 1.929688 -26.070312 2.421875 -26.59375 C 2.921875 -27.125 3.257812 -27.640625 3.4375 -28.140625 C 3.625 -28.648438 3.675781 -29.257812 3.59375 -29.96875 C 3.519531 -30.675781 3.238281 -31.414062 2.75 -32.1875 C 2.269531 -32.957031 1.726562 -33.53125 1.125 -33.90625 C 0.53125 -34.289062 -0.03125 -34.507812 -0.5625 -34.5625 C -1.101562 -34.625 -1.710938 -34.546875 -2.390625 -34.328125 C -3.078125 -34.109375 -3.660156 -33.867188 -4.140625 -33.609375 C -4.628906 -33.359375 -5.210938 -33.019531 -5.890625 -32.59375 L -6.734375 -32.0625 Z M -1.5 -23.703125 "/></g></g></g><g fill="#32c6ff" fill-opacity="0.1608"><g transform="translate(147.185834, 46.009915)"><g><path d="M 14.25 -2.59375 L -8.015625 -36.734375 L 1.484375 -38.46875 L 15.25 -15.890625 L 20.140625 -41.875 L 29.625 -43.609375 L 20.875 -3.8125 Z M 14.25 -2.59375 "/></g></g></g><g fill="#32c6ff" fill-opacity="0.1608"><g transform="translate(200.708136, 40.388646)"><g><path d="M 30.46875 -32.71875 L 29.15625 -25.328125 L 16.421875 -27.609375 L 15.09375 -20.25 L 27.28125 -18.0625 L 25.96875 -10.671875 L 13.78125 -12.859375 L 12.453125 -5.40625 L 25.1875 -3.125 L 23.859375 4.265625 L 2.6875 0.484375 L 9.296875 -36.5 Z M 30.46875 -32.71875 "/></g></g></g><g fill="#32c6ff" fill-opacity="0.1608"><g transform="translate(244.378778, 51.533443)"><g><path d="M 34.421875 -24.296875 L 21.8125 -0.453125 C 20.09375 2.796875 17.890625 4.800781 15.203125 5.5625 C 12.523438 6.320312 9.519531 5.820312 6.1875 4.0625 C 5.300781 3.59375 4.484375 3.019531 3.734375 2.34375 C 2.992188 1.664062 2.410156 1.019531 1.984375 0.40625 C 1.566406 -0.207031 1.207031 -0.800781 0.90625 -1.375 C 0.601562 -1.945312 0.398438 -2.394531 0.296875 -2.71875 L 0.109375 -3.234375 L 5.875 -8.265625 C 6.664062 -5.929688 7.703125 -4.425781 8.984375 -3.75 C 10.140625 -3.132812 11.265625 -3.023438 12.359375 -3.421875 C 13.460938 -3.816406 14.4375 -4.804688 15.28125 -6.390625 L 26.859375 -28.296875 Z M 34.421875 -24.296875 "/></g></g></g><g fill="#32c6ff" fill-opacity="0.1608"><g transform="translate(278.782767, 71.572197)"><g><path d="M 14.71875 -11.765625 C 18.769531 -15.390625 23.429688 -17.078125 28.703125 -16.828125 C 33.984375 -16.578125 38.363281 -14.503906 41.84375 -10.609375 C 45.34375 -6.691406 46.921875 -2.117188 46.578125 3.109375 C 46.234375 8.347656 44.019531 12.789062 39.9375 16.4375 C 35.84375 20.101562 31.191406 21.84375 25.984375 21.65625 C 20.785156 21.46875 16.394531 19.367188 12.8125 15.359375 C 9.144531 11.253906 7.507812 6.632812 7.90625 1.5 C 8.300781 -3.632812 10.570312 -8.054688 14.71875 -11.765625 Z M 20.875 -4.875 C 19.40625 -3.550781 18.269531 -2.125 17.46875 -0.59375 C 16.664062 0.9375 16.347656 2.640625 16.515625 4.515625 C 16.691406 6.398438 17.519531 8.171875 19 9.828125 C 21.125 12.203125 23.539062 13.265625 26.25 13.015625 C 28.96875 12.773438 31.476562 11.625 33.78125 9.5625 C 36.0625 7.519531 37.472656 5.144531 38.015625 2.4375 C 38.554688 -0.257812 37.785156 -2.773438 35.703125 -5.109375 C 33.640625 -7.421875 31.222656 -8.46875 28.453125 -8.25 C 25.679688 -8.039062 23.15625 -6.914062 20.875 -4.875 Z M 20.875 -4.875 "/></g></g></g><g fill="#32c6ff" fill-opacity="0.1608"><g transform="translate(314.048422, 117.254213)"><g><path d="M 35.046875 -13.609375 L 38.421875 -3.90625 L 29.640625 7.46875 L 43.5625 10.90625 L 46.9375 20.625 L 22.828125 14.34375 L 6.90625 19.875 L 4.09375 11.796875 L 20.015625 6.265625 Z M 35.046875 -13.609375 "/></g></g></g><g fill="#21bcf8" fill-opacity="1"><g transform="translate(52.084178, 146.854737)"><g><path d="M -30.984375 -27.921875 C -30.335938 -29.835938 -29.421875 -31.617188 -28.234375 -33.265625 C -27.054688 -34.921875 -26.046875 -36.109375 -25.203125 -36.828125 L -23.890625 -37.828125 L -18.515625 -32.375 C -18.773438 -32.175781 -19.117188 -31.890625 -19.546875 -31.515625 C -19.984375 -31.148438 -20.640625 -30.410156 -21.515625 -29.296875 C -22.398438 -28.191406 -23.03125 -27.09375 -23.40625 -26 C -23.851562 -24.644531 -23.914062 -23.503906 -23.59375 -22.578125 C -23.269531 -21.648438 -22.617188 -21.019531 -21.640625 -20.6875 C -21.148438 -20.519531 -20.640625 -20.535156 -20.109375 -20.734375 C -19.578125 -20.941406 -18.929688 -21.378906 -18.171875 -22.046875 C -17.421875 -22.722656 -16.796875 -23.332031 -16.296875 -23.875 C -15.796875 -24.414062 -15.035156 -25.25 -14.015625 -26.375 C -12.253906 -28.351562 -10.257812 -29.867188 -8.03125 -30.921875 C -5.800781 -31.984375 -3.625 -32.15625 -1.5 -31.4375 C 0.539062 -30.75 2.203125 -29.785156 3.484375 -28.546875 C 4.765625 -27.304688 5.617188 -25.894531 6.046875 -24.3125 C 6.484375 -22.738281 6.648438 -21.101562 6.546875 -19.40625 C 6.453125 -17.71875 6.097656 -15.96875 5.484375 -14.15625 C 4.960938 -12.601562 4.289062 -11.128906 3.46875 -9.734375 C 2.65625 -8.335938 1.835938 -7.21875 1.015625 -6.375 C 0.203125 -5.53125 -0.566406 -4.785156 -1.296875 -4.140625 C -2.023438 -3.492188 -2.613281 -3.035156 -3.0625 -2.765625 L -3.734375 -2.359375 L -9.1875 -8.703125 C -8.769531 -8.953125 -8.238281 -9.300781 -7.59375 -9.75 C -6.945312 -10.207031 -5.988281 -11.082031 -4.71875 -12.375 C -3.457031 -13.664062 -2.628906 -14.898438 -2.234375 -16.078125 C -1.078125 -19.503906 -1.664062 -21.609375 -4 -22.390625 C -4.488281 -22.554688 -4.984375 -22.585938 -5.484375 -22.484375 C -5.984375 -22.378906 -6.546875 -22.085938 -7.171875 -21.609375 C -7.796875 -21.140625 -8.304688 -20.707031 -8.703125 -20.3125 C -9.109375 -19.925781 -9.742188 -19.273438 -10.609375 -18.359375 C -11.484375 -17.441406 -12.140625 -16.769531 -12.578125 -16.34375 C -14.367188 -14.539062 -16.257812 -13.316406 -18.25 -12.671875 C -20.238281 -12.035156 -22.160156 -12.023438 -24.015625 -12.640625 C -27.210938 -13.722656 -29.425781 -15.785156 -30.65625 -18.828125 C -31.882812 -21.867188 -31.992188 -24.898438 -30.984375 -27.921875 Z M -30.984375 -27.921875 "/></g></g></g><g fill="#21bcf8" fill-opacity="1"><g transform="translate(70.95387, 101.697167)"><g><path d="M -14.625 -42.265625 L -8.703125 -37.625 L -16.6875 -27.4375 L -10.8125 -22.828125 L -3.171875 -32.578125 L 2.75 -27.9375 L -4.890625 -18.1875 L 1.046875 -13.53125 L 9.03125 -23.71875 L 14.953125 -19.078125 L 1.6875 -2.15625 L -27.890625 -25.34375 Z M -14.625 -42.265625 "/></g></g></g><g fill="#21bcf8" fill-opacity="1"><g transform="translate(100.634178, 68.146867)"><g><path d="M -17.609375 -33.3125 L -6.203125 -40.4375 C -3.140625 -42.351562 -0.132812 -43.097656 2.8125 -42.671875 C 5.757812 -42.242188 8.179688 -40.515625 10.078125 -37.484375 C 11.546875 -35.128906 12.191406 -32.796875 12.015625 -30.484375 C 11.835938 -28.171875 10.941406 -26.0625 9.328125 -24.15625 L 28.53125 -17.84375 L 19.296875 -12.078125 L 1.703125 -18.5625 L 9.578125 -5.984375 L 2.3125 -1.453125 Z M -1.5 -23.703125 L -0.65625 -24.234375 C 0.0195312 -24.660156 0.578125 -25.03125 1.015625 -25.34375 C 1.460938 -25.65625 1.929688 -26.070312 2.421875 -26.59375 C 2.921875 -27.125 3.257812 -27.640625 3.4375 -28.140625 C 3.625 -28.648438 3.675781 -29.257812 3.59375 -29.96875 C 3.519531 -30.675781 3.238281 -31.414062 2.75 -32.1875 C 2.269531 -32.957031 1.726562 -33.53125 1.125 -33.90625 C 0.53125 -34.289062 -0.03125 -34.507812 -0.5625 -34.5625 C -1.101562 -34.625 -1.710938 -34.546875 -2.390625 -34.328125 C -3.078125 -34.109375 -3.660156 -33.867188 -4.140625 -33.609375 C -4.628906 -33.359375 -5.210938 -33.019531 -5.890625 -32.59375 L -6.734375 -32.0625 Z M -1.5 -23.703125 "/></g></g></g><g fill="#21bcf8" fill-opacity="1"><g transform="translate(145.172949, 43.997029)"><g><path d="M 14.25 -2.59375 L -8.015625 -36.734375 L 1.484375 -38.46875 L 15.25 -15.890625 L 20.140625 -41.875 L 29.625 -43.609375 L 20.875 -3.8125 Z M 14.25 -2.59375 "/></g></g></g><g fill="#21bcf8" fill-opacity="1"><g transform="translate(198.695251, 38.37576)"><g><path d="M 30.46875 -32.71875 L 29.15625 -25.328125 L 16.421875 -27.609375 L 15.09375 -20.25 L 27.28125 -18.0625 L 25.96875 -10.671875 L 13.78125 -12.859375 L 12.453125 -5.40625 L 25.1875 -3.125 L 23.859375 4.265625 L 2.6875 0.484375 L 9.296875 -36.5 Z M 30.46875 -32.71875 "/></g></g></g><g fill="#21bcf8" fill-opacity="1"><g transform="translate(242.365879, 49.520559)"><g><path d="M 34.421875 -24.296875 L 21.8125 -0.453125 C 20.09375 2.796875 17.890625 4.800781 15.203125 5.5625 C 12.523438 6.320312 9.519531 5.820312 6.1875 4.0625 C 5.300781 3.59375 4.484375 3.019531 3.734375 2.34375 C 2.992188 1.664062 2.410156 1.019531 1.984375 0.40625 C 1.566406 -0.207031 1.207031 -0.800781 0.90625 -1.375 C 0.601562 -1.945312 0.398438 -2.394531 0.296875 -2.71875 L 0.109375 -3.234375 L 5.875 -8.265625 C 6.664062 -5.929688 7.703125 -4.425781 8.984375 -3.75 C 10.140625 -3.132812 11.265625 -3.023438 12.359375 -3.421875 C 13.460938 -3.816406 14.4375 -4.804688 15.28125 -6.390625 L 26.859375 -28.296875 Z M 34.421875 -24.296875 "/></g></g></g><g fill="#21bcf8" fill-opacity="1"><g transform="translate(276.769868, 69.55931)"><g><path d="M 14.71875 -11.765625 C 18.769531 -15.390625 23.429688 -17.078125 28.703125 -16.828125 C 33.984375 -16.578125 38.363281 -14.503906 41.84375 -10.609375 C 45.34375 -6.691406 46.921875 -2.117188 46.578125 3.109375 C 46.234375 8.347656 44.019531 12.789062 39.9375 16.4375 C 35.84375 20.101562 31.191406 21.84375 25.984375 21.65625 C 20.785156 21.46875 16.394531 19.367188 12.8125 15.359375 C 9.144531 11.253906 7.507812 6.632812 7.90625 1.5 C 8.300781 -3.632812 10.570312 -8.054688 14.71875 -11.765625 Z M 20.875 -4.875 C 19.40625 -3.550781 18.269531 -2.125 17.46875 -0.59375 C 16.664062 0.9375 16.347656 2.640625 16.515625 4.515625 C 16.691406 6.398438 17.519531 8.171875 19 9.828125 C 21.125 12.203125 23.539062 13.265625 26.25 13.015625 C 28.96875 12.773438 31.476562 11.625 33.78125 9.5625 C 36.0625 7.519531 37.472656 5.144531 38.015625 2.4375 C 38.554688 -0.257812 37.785156 -2.773438 35.703125 -5.109375 C 33.640625 -7.421875 31.222656 -8.46875 28.453125 -8.25 C 25.679688 -8.039062 23.15625 -6.914062 20.875 -4.875 Z M 20.875 -4.875 "/></g></g></g><g fill="#21bcf8" fill-opacity="1"><g transform="translate(312.035523, 115.241321)"><g><path d="M 35.046875 -13.609375 L 38.421875 -3.90625 L 29.640625 7.46875 L 43.5625 10.90625 L 46.9375 20.625 L 22.828125 14.34375 L 6.90625 19.875 L 4.09375 11.796875 L 20.015625 6.265625 Z M 35.046875 -13.609375 "/></g></g></g><path fill="#21bcf8" d="M 145.898438 202.523438 C 149.6875 201.089844 157.234375 195.984375 160.855469 195.222656 C 161.71875 195.042969 162.511719 194.761719 162.886719 194.011719 C 165.332031 189.128906 164.84375 178.894531 159.304688 178.1875 C 150.160156 177.019531 131.222656 179.453125 120.664062 183.726562 C 115.375 185.867188 114.214844 188.546875 109.074219 191.621094 C 105.632812 193.679688 96.574219 199.796875 97.84375 202.542969 C 105.40625 218.921875 109.785156 251.320312 123.191406 252 C 140.628906 252.886719 141.527344 237.992188 141.582031 227.84375 C 141.746094 195.617188 144.597656 210.402344 127.578125 208.234375 C 115.207031 206.65625 130.640625 208.296875 145.898438 202.523438 Z M 97.664062 185.871094 C 106.273438 199.902344 92.804688 204.195312 81.789062 180.777344 C 79.402344 175.699219 75.492188 171.058594 73.25 168.46875 C 72.171875 167.222656 70.996094 165.976562 70.542969 164.34375 C 69.785156 161.613281 71.953125 160.691406 73.535156 159.183594 C 74.316406 158.441406 75.46875 157.597656 76.609375 157.464844 C 80.199219 157.046875 82.898438 158.808594 84.613281 161.585938 C 84.640625 161.628906 84.679688 161.691406 84.707031 161.734375 L 85.21875 162.449219 C 86.519531 164.382812 86.78125 167.085938 87.5 169.316406 C 88.816406 173.394531 90.519531 174.394531 92.285156 177.730469 C 94.570312 182.691406 95.53125 182.394531 97.664062 185.871094 Z M 144.152344 226.695312 C 143.410156 220.195312 143.261719 210.804688 147.394531 205.285156 C 149.753906 202.136719 159.53125 194.855469 162.40625 196.179688 C 168.414062 210.5625 172.652344 208.847656 176.375 207.144531 C 178.125 206.34375 178.828125 205.425781 180.808594 206.007812 C 184.746094 207.171875 189.101562 213.546875 181.109375 217.902344 C 171.929688 222.902344 177.226562 228.949219 172.578125 237.5 C 165.691406 247.417969 155.0625 258.402344 142.953125 253.671875 C 138.539062 251.949219 137.007812 250.933594 138.957031 246.203125 C 140.84375 241.625 145.230469 236.09375 144.152344 226.695312 Z M 105.871094 133.226562 C 108.226562 135.835938 110.714844 147.199219 110.777344 149.960938 C 110.8125 151.566406 111.066406 151.847656 111.554688 153.164062 C 112.292969 155.160156 114.011719 164.292969 114.199219 165.710938 C 114.425781 167.394531 113.835938 167.515625 114.171875 169.191406 C 114.5 170.820312 114.910156 170.75 115.460938 171.894531 C 116.253906 173.535156 118.335938 178.925781 116.707031 181.011719 C 109.210938 190.597656 111.535156 183.371094 103.355469 177.035156 C 101.902344 175.425781 102.46875 174.785156 101.832031 173.132812 C 101.425781 170.214844 100.421875 167.597656 100.90625 164.367188 C 101.164062 162.636719 100.121094 157.917969 99.703125 155.789062 C 99.441406 154.464844 99.816406 154.824219 100.082031 153.695312 C 98.410156 152.808594 97.65625 151.5625 97.382812 149.675781 C 97.070312 147.542969 95.503906 135.03125 97.722656 133.175781 C 100.109375 131.1875 103.191406 130.214844 105.871094 133.226562 Z M 128.53125 113.917969 C 130.976562 112.535156 133.957031 112.859375 136.417969 114 C 140.007812 115.664062 140.863281 122.761719 140.210938 127.085938 C 138.421875 138.921875 138.433594 135.621094 140.042969 148.1875 C 139.699219 155.394531 139.84375 155.734375 140.789062 161.863281 L 141.347656 168.523438 C 141.347656 179.859375 128.164062 181.792969 129.65625 171.257812 C 123.363281 159.71875 128.71875 151.488281 126.726562 146.574219 C 126.527344 146.035156 126.4375 145.472656 126.460938 144.894531 C 126.542969 142.429688 126.015625 143.335938 125.617188 141.222656 C 125.375 139.960938 125.222656 138.160156 124.796875 137.066406 C 123.011719 132.46875 124.257812 132.941406 123.792969 129.535156 C 123.4375 126.933594 124.027344 125.007812 123.457031 122.476562 C 123.019531 120.535156 126.152344 115.261719 128.53125 113.917969 Z M 181.503906 194.78125 C 184.945312 199.8125 177.710938 202.71875 184.78125 206.480469 C 190.464844 210.25 194.371094 198.3125 194.933594 197.667969 C 197.570312 194.472656 196.097656 197.253906 199.867188 192.652344 C 202.078125 189.957031 207.664062 175.171875 204.914062 172.050781 C 204.234375 171.28125 200.515625 170.132812 199.613281 170.132812 C 194.996094 170.132812 176.925781 183.828125 181.503906 194.78125 Z M 152.785156 146.566406 C 149.761719 142.902344 149.328125 105.621094 161.382812 123.042969 C 162.503906 124.753906 162.917969 126.507812 163.339844 128.515625 C 163.757812 130.519531 164.140625 132.964844 163.910156 135.039062 C 163.449219 139.222656 161.902344 137.027344 163.480469 140.59375 C 163.90625 141.558594 164.300781 145.734375 164.4375 147.101562 C 165.105469 153.859375 164.164062 152 163.292969 156.574219 C 162.980469 158.21875 159.917969 174.964844 159.402344 175.832031 C 157.832031 178.472656 153.058594 176.050781 151.703125 173.292969 C 151.351562 172.128906 151.214844 146.703125 152.785156 146.566406 Z M 152.785156 146.566406 " fill-opacity="1" fill-rule="evenodd"/><path fill="#67d407" d="M 229.09375 140.078125 C 225.304688 141.511719 217.757812 146.613281 214.136719 147.378906 C 213.273438 147.558594 212.480469 147.835938 212.105469 148.585938 C 209.660156 153.472656 210.148438 163.703125 215.6875 164.414062 C 224.832031 165.582031 243.769531 163.144531 254.328125 158.875 C 259.617188 156.734375 260.777344 154.050781 265.917969 150.976562 C 269.363281 148.917969 278.417969 142.804688 277.148438 140.054688 C 269.585938 123.679688 265.207031 91.28125 251.800781 90.597656 C 234.363281 89.714844 233.464844 104.605469 233.410156 114.757812 C 233.246094 146.984375 230.394531 132.199219 247.414062 134.367188 C 259.785156 135.941406 244.351562 134.304688 229.09375 140.078125 Z M 277.328125 156.730469 C 268.71875 142.699219 282.1875 138.402344 293.203125 161.824219 C 295.589844 166.898438 299.5 171.539062 301.742188 174.128906 C 302.820312 175.375 303.996094 176.625 304.449219 178.253906 C 305.207031 180.988281 303.039062 181.90625 301.457031 183.414062 C 300.675781 184.15625 299.523438 185.003906 298.382812 185.136719 C 294.792969 185.550781 292.09375 183.789062 290.378906 181.015625 C 290.355469 180.972656 290.3125 180.910156 290.285156 180.867188 L 289.773438 180.152344 C 288.472656 178.214844 288.210938 175.515625 287.492188 173.28125 C 286.175781 169.207031 284.476562 168.207031 282.707031 164.871094 C 280.421875 159.910156 279.460938 160.203125 277.328125 156.730469 Z M 230.839844 115.90625 C 231.582031 122.402344 231.730469 131.796875 227.597656 137.3125 C 225.242188 140.460938 215.460938 147.746094 212.585938 146.417969 C 206.578125 132.035156 202.339844 133.753906 198.617188 135.453125 C 196.867188 136.257812 196.164062 137.175781 194.183594 136.589844 C 190.246094 135.425781 185.890625 129.050781 193.882812 124.699219 C 203.0625 119.695312 197.765625 113.648438 202.414062 105.097656 C 209.300781 95.183594 219.933594 84.199219 232.039062 88.925781 C 236.453125 90.652344 237.984375 91.664062 236.035156 96.398438 C 234.148438 100.976562 229.761719 106.507812 230.839844 115.90625 Z M 269.121094 209.371094 C 266.769531 206.765625 264.277344 195.398438 264.214844 192.636719 C 264.179688 191.035156 263.925781 190.753906 263.4375 189.433594 C 262.699219 187.4375 260.980469 178.304688 260.792969 176.890625 C 260.566406 175.207031 261.15625 175.085938 260.820312 173.410156 C 260.492188 171.78125 260.085938 171.851562 259.53125 170.707031 C 258.738281 169.0625 256.65625 163.671875 258.285156 161.585938 C 265.78125 152.003906 263.457031 159.230469 271.636719 165.5625 C 273.089844 167.175781 272.527344 167.816406 273.160156 169.46875 C 273.566406 172.386719 274.570312 175.003906 274.085938 178.230469 C 273.828125 179.960938 274.871094 184.683594 275.292969 186.8125 C 275.550781 188.132812 275.175781 187.777344 274.910156 188.90625 C 276.582031 189.789062 277.335938 191.035156 277.613281 192.921875 C 277.921875 195.054688 279.488281 207.570312 277.269531 209.421875 C 274.882812 211.410156 271.800781 212.386719 269.121094 209.371094 Z M 246.460938 228.683594 C 244.015625 230.0625 241.035156 229.742188 238.574219 228.601562 C 234.984375 226.9375 234.128906 219.839844 234.78125 215.515625 C 236.570312 203.675781 236.558594 206.976562 234.949219 194.410156 C 235.292969 187.203125 235.148438 186.867188 234.203125 180.734375 L 233.644531 174.078125 C 233.644531 162.738281 246.828125 160.808594 245.335938 171.339844 C 251.628906 182.882812 246.273438 191.109375 248.265625 196.023438 C 248.46875 196.566406 248.554688 197.125 248.53125 197.703125 C 248.449219 200.167969 248.976562 199.261719 249.378906 201.375 C 249.617188 202.640625 249.773438 204.441406 250.195312 205.535156 C 251.980469 210.128906 250.734375 209.65625 251.203125 213.066406 C 251.558594 215.667969 250.964844 217.59375 251.535156 220.125 C 251.972656 222.066406 248.839844 227.335938 246.460938 228.683594 Z M 193.488281 147.820312 C 190.046875 142.785156 197.285156 139.878906 190.210938 136.117188 C 184.527344 132.351562 180.621094 144.285156 180.0625 144.933594 C 177.421875 148.125 178.894531 145.347656 175.125 149.945312 C 172.914062 152.640625 167.328125 167.425781 170.082031 170.550781 C 170.757812 171.320312 174.476562 172.464844 175.382812 172.464844 C 179.996094 172.464844 198.066406 158.773438 193.488281 147.820312 Z M 222.207031 196.035156 C 225.230469 199.699219 225.664062 236.976562 213.609375 219.558594 C 212.488281 217.847656 212.074219 216.09375 211.652344 214.085938 C 211.234375 212.078125 210.851562 209.632812 211.082031 207.558594 C 211.542969 203.375 213.09375 205.574219 211.511719 202.003906 C 211.085938 201.042969 210.691406 196.867188 210.554688 195.5 C 209.886719 188.742188 210.828125 190.601562 211.699219 186.023438 C 212.011719 184.382812 215.074219 167.636719 215.59375 166.765625 C 217.160156 164.128906 221.9375 166.550781 223.289062 169.304688 C 223.640625 170.472656 223.777344 195.898438 222.207031 196.035156 Z M 222.207031 196.035156 " fill-opacity="1" fill-rule="evenodd"/><g fill="#72f300" fill-opacity="0.1608"><g transform="translate(7.741984, 190.817608)"><g><path d="M 30.296875 -2.578125 L 36.640625 -3.5 L 40.984375 26.375 L 34.640625 27.296875 L 33.015625 16.140625 L 2.984375 20.5 L 1.875 12.90625 L 31.90625 8.546875 Z M 30.296875 -2.578125 "/></g></g></g><g fill="#72f300" fill-opacity="0.1608"><g transform="translate(22.360737, 254.006321)"><g><path d="M 1.5625 2.78125 L 33.59375 -15.234375 L 37.40625 -8.453125 L 24.1875 -1.03125 L 31.921875 12.703125 L 45.140625 5.28125 L 48.9375 12.03125 L 16.90625 30.046875 L 13.109375 23.296875 L 26.34375 15.84375 L 18.609375 2.109375 L 5.375 9.5625 Z M 1.5625 2.78125 "/></g></g></g><g fill="#72f300" fill-opacity="0.1608"><g transform="translate(61.191864, 310.455483)"><g><path d="M 2.4375 2.046875 L 26.078125 -26.09375 L 45.046875 -10.15625 L 40.921875 -5.25 L 27.90625 -16.171875 L 22.28125 -9.46875 L 34.328125 0.640625 L 30.203125 5.546875 L 18.15625 -4.5625 L 12.515625 2.15625 L 25.578125 13.125 L 21.453125 18.03125 Z M 2.4375 2.046875 "/></g></g></g><g fill="#72f300" fill-opacity="0.1608"><g transform="translate(110.694084, 344.917737)"><g/></g></g><g fill="#72f300" fill-opacity="0.1608"><g transform="translate(150.48514, 360.57772)"><g><path d="M 11.4375 0.84375 L 3.640625 -36.59375 L 12.09375 -35.96875 L 16.28125 -10.0625 L 16.59375 -10.03125 L 25.15625 -35.015625 L 32.421875 -34.484375 L 37.21875 -8.453125 L 37.546875 -8.4375 L 45.484375 -33.53125 L 53.9375 -32.90625 L 40.765625 2.984375 L 33.21875 2.4375 L 28 -22.046875 L 27.703125 -22.0625 L 18.984375 1.390625 Z M 11.4375 0.84375 "/></g></g></g><g fill="#72f300" fill-opacity="0.1608"><g transform="translate(234.817374, 358.423083)"><g><path d="M 28.21875 -30.140625 C 29.613281 -26.378906 30.09375 -22.921875 29.65625 -19.765625 C 29.21875 -16.609375 28.039062 -13.878906 26.125 -11.578125 C 24.207031 -9.285156 21.722656 -7.570312 18.671875 -6.4375 C 15.617188 -5.300781 12.613281 -4.972656 9.65625 -5.453125 C 6.707031 -5.929688 4.035156 -7.226562 1.640625 -9.34375 C -0.753906 -11.457031 -2.644531 -14.378906 -4.03125 -18.109375 C -5.4375 -21.859375 -5.925781 -25.3125 -5.5 -28.46875 C -5.070312 -31.625 -3.898438 -34.351562 -1.984375 -36.65625 C -0.0664062 -38.957031 2.414062 -40.675781 5.46875 -41.8125 C 8.519531 -42.945312 11.519531 -43.273438 14.46875 -42.796875 C 17.425781 -42.316406 20.101562 -41.023438 22.5 -38.921875 C 24.90625 -36.816406 26.8125 -33.890625 28.21875 -30.140625 Z M 20.828125 -27.390625 C 19.460938 -31.035156 17.625 -33.519531 15.3125 -34.84375 C 13 -36.175781 10.519531 -36.347656 7.875 -35.359375 C 5.226562 -34.367188 3.46875 -32.613281 2.59375 -30.09375 C 1.726562 -27.582031 1.976562 -24.503906 3.34375 -20.859375 C 4.695312 -17.210938 6.523438 -14.722656 8.828125 -13.390625 C 11.140625 -12.054688 13.617188 -11.882812 16.265625 -12.875 C 18.910156 -13.863281 20.671875 -15.617188 21.546875 -18.140625 C 22.421875 -20.660156 22.179688 -23.742188 20.828125 -27.390625 Z M 20.828125 -27.390625 "/></g></g></g><g fill="#72f300" fill-opacity="0.1608"><g transform="translate(298.41687, 327.881063)"><g><path d="M 2.375 -2.125 L -22.109375 -29.53125 L -11.296875 -39.1875 C -8.179688 -41.96875 -5.035156 -43.3125 -1.859375 -43.21875 C 1.304688 -43.132812 4.101562 -41.734375 6.53125 -39.015625 C 8.195312 -37.148438 9.207031 -35.175781 9.5625 -33.09375 C 9.925781 -31.019531 9.628906 -28.953125 8.671875 -26.890625 L 24 -21.421875 L 17.59375 -15.71875 L 3.71875 -20.796875 L -0.5 -17.03125 L 8.1875 -7.3125 Z M -4.640625 -21.6875 L -0.71875 -25.1875 C 2.570312 -28.125 3 -30.953125 0.5625 -33.671875 C -1.945312 -36.484375 -4.859375 -36.414062 -8.171875 -33.46875 L -12.0625 -29.984375 Z M -4.640625 -21.6875 "/></g></g></g><g fill="#72f300" fill-opacity="0.1608"><g transform="translate(341.996299, 281.517809)"><g><path d="M 1.53125 -2.796875 L -30.671875 -20.515625 L -26.921875 -27.328125 L -0.328125 -12.703125 L 7.265625 -26.5 L 12.875 -23.40625 Z M 1.53125 -2.796875 "/></g></g></g><g fill="#72f300" fill-opacity="0.1608"><g transform="translate(366.466912, 227.328377)"><g><path d="M 2.484375 -16.03125 L 0.484375 -3.15625 L -35.828125 -8.78125 L -33.8125 -21.765625 C -33.25 -25.421875 -32.039062 -28.453125 -30.1875 -30.859375 C -28.34375 -33.273438 -25.953125 -34.984375 -23.015625 -35.984375 C -20.085938 -36.984375 -16.734375 -37.191406 -12.953125 -36.609375 C -9.171875 -36.023438 -6.035156 -34.8125 -3.546875 -32.96875 C -1.054688 -31.125 0.710938 -28.765625 1.765625 -25.890625 C 2.816406 -23.015625 3.054688 -19.726562 2.484375 -16.03125 Z M -4.90625 -11.859375 L -4.140625 -16.734375 C -3.617188 -20.140625 -4.140625 -22.867188 -5.703125 -24.921875 C -7.273438 -26.984375 -10.085938 -28.328125 -14.140625 -28.953125 C -18.179688 -29.578125 -21.253906 -29.144531 -23.359375 -27.65625 C -25.460938 -26.164062 -26.773438 -23.722656 -27.296875 -20.328125 L -28.0625 -15.4375 Z M -4.90625 -11.859375 "/></g></g></g><g fill="#67d407" fill-opacity="1"><g transform="translate(5.508636, 188.584247)"><g><path d="M 30.296875 -2.578125 L 36.640625 -3.5 L 40.984375 26.375 L 34.640625 27.296875 L 33.015625 16.140625 L 2.984375 20.5 L 1.875 12.90625 L 31.90625 8.546875 Z M 30.296875 -2.578125 "/></g></g></g><g fill="#67d407" fill-opacity="1"><g transform="translate(20.127383, 251.772977)"><g><path d="M 1.5625 2.78125 L 33.59375 -15.234375 L 37.40625 -8.453125 L 24.1875 -1.03125 L 31.921875 12.703125 L 45.140625 5.28125 L 48.9375 12.03125 L 16.90625 30.046875 L 13.109375 23.296875 L 26.34375 15.84375 L 18.609375 2.109375 L 5.375 9.5625 Z M 1.5625 2.78125 "/></g></g></g><g fill="#67d407" fill-opacity="1"><g transform="translate(58.958517, 308.222125)"><g><path d="M 2.4375 2.046875 L 26.078125 -26.09375 L 45.046875 -10.15625 L 40.921875 -5.25 L 27.90625 -16.171875 L 22.28125 -9.46875 L 34.328125 0.640625 L 30.203125 5.546875 L 18.15625 -4.5625 L 12.515625 2.15625 L 25.578125 13.125 L 21.453125 18.03125 Z M 2.4375 2.046875 "/></g></g></g><g fill="#67d407" fill-opacity="1"><g transform="translate(108.46074, 342.684408)"><g/></g></g><g fill="#67d407" fill-opacity="1"><g transform="translate(148.251796, 358.34436)"><g><path d="M 11.4375 0.84375 L 3.640625 -36.59375 L 12.09375 -35.96875 L 16.28125 -10.0625 L 16.59375 -10.03125 L 25.15625 -35.015625 L 32.421875 -34.484375 L 37.21875 -8.453125 L 37.546875 -8.4375 L 45.484375 -33.53125 L 53.9375 -32.90625 L 40.765625 2.984375 L 33.21875 2.4375 L 28 -22.046875 L 27.703125 -22.0625 L 18.984375 1.390625 Z M 11.4375 0.84375 "/></g></g></g><g fill="#67d407" fill-opacity="1"><g transform="translate(232.584015, 356.189725)"><g><path d="M 28.21875 -30.140625 C 29.613281 -26.378906 30.09375 -22.921875 29.65625 -19.765625 C 29.21875 -16.609375 28.039062 -13.878906 26.125 -11.578125 C 24.207031 -9.285156 21.722656 -7.570312 18.671875 -6.4375 C 15.617188 -5.300781 12.613281 -4.972656 9.65625 -5.453125 C 6.707031 -5.929688 4.035156 -7.226562 1.640625 -9.34375 C -0.753906 -11.457031 -2.644531 -14.378906 -4.03125 -18.109375 C -5.4375 -21.859375 -5.925781 -25.3125 -5.5 -28.46875 C -5.070312 -31.625 -3.898438 -34.351562 -1.984375 -36.65625 C -0.0664062 -38.957031 2.414062 -40.675781 5.46875 -41.8125 C 8.519531 -42.945312 11.519531 -43.273438 14.46875 -42.796875 C 17.425781 -42.316406 20.101562 -41.023438 22.5 -38.921875 C 24.90625 -36.816406 26.8125 -33.890625 28.21875 -30.140625 Z M 20.828125 -27.390625 C 19.460938 -31.035156 17.625 -33.519531 15.3125 -34.84375 C 13 -36.175781 10.519531 -36.347656 7.875 -35.359375 C 5.226562 -34.367188 3.46875 -32.613281 2.59375 -30.09375 C 1.726562 -27.582031 1.976562 -24.503906 3.34375 -20.859375 C 4.695312 -17.210938 6.523438 -14.722656 8.828125 -13.390625 C 11.140625 -12.054688 13.617188 -11.882812 16.265625 -12.875 C 18.910156 -13.863281 20.671875 -15.617188 21.546875 -18.140625 C 22.421875 -20.660156 22.179688 -23.742188 20.828125 -27.390625 Z M 20.828125 -27.390625 "/></g></g></g><g fill="#67d407" fill-opacity="1"><g transform="translate(296.183512, 325.647733)"><g><path d="M 2.375 -2.125 L -22.109375 -29.53125 L -11.296875 -39.1875 C -8.179688 -41.96875 -5.035156 -43.3125 -1.859375 -43.21875 C 1.304688 -43.132812 4.101562 -41.734375 6.53125 -39.015625 C 8.195312 -37.148438 9.207031 -35.175781 9.5625 -33.09375 C 9.925781 -31.019531 9.628906 -28.953125 8.671875 -26.890625 L 24 -21.421875 L 17.59375 -15.71875 L 3.71875 -20.796875 L -0.5 -17.03125 L 8.1875 -7.3125 Z M -4.640625 -21.6875 L -0.71875 -25.1875 C 2.570312 -28.125 3 -30.953125 0.5625 -33.671875 C -1.945312 -36.484375 -4.859375 -36.414062 -8.171875 -33.46875 L -12.0625 -29.984375 Z M -4.640625 -21.6875 "/></g></g></g><g fill="#67d407" fill-opacity="1"><g transform="translate(339.76297, 279.284479)"><g><path d="M 1.53125 -2.796875 L -30.671875 -20.515625 L -26.921875 -27.328125 L -0.328125 -12.703125 L 7.265625 -26.5 L 12.875 -23.40625 Z M 1.53125 -2.796875 "/></g></g></g><g fill="#67d407" fill-opacity="1"><g transform="translate(364.233554, 225.095004)"><g><path d="M 2.484375 -16.03125 L 0.484375 -3.15625 L -35.828125 -8.78125 L -33.8125 -21.765625 C -33.25 -25.421875 -32.039062 -28.453125 -30.1875 -30.859375 C -28.34375 -33.273438 -25.953125 -34.984375 -23.015625 -35.984375 C -20.085938 -36.984375 -16.734375 -37.191406 -12.953125 -36.609375 C -9.171875 -36.023438 -6.035156 -34.8125 -3.546875 -32.96875 C -1.054688 -31.125 0.710938 -28.765625 1.765625 -25.890625 C 2.816406 -23.015625 3.054688 -19.726562 2.484375 -16.03125 Z M -4.90625 -11.859375 L -4.140625 -16.734375 C -3.617188 -20.140625 -4.140625 -22.867188 -5.703125 -24.921875 C -7.273438 -26.984375 -10.085938 -28.328125 -14.140625 -28.953125 C -18.179688 -29.578125 -21.253906 -29.144531 -23.359375 -27.65625 C -25.460938 -26.164062 -26.773438 -23.722656 -27.296875 -20.328125 L -28.0625 -15.4375 Z M -4.90625 -11.859375 "/></g></g></g></svg>